<svg id="Layer_1" data-name="Layer 1" xmlns="http://www.w3.org/2000/svg" viewBox="0 0 137.23 48"><defs><style>.cls-1{font-size:15.53px;font-family:CalifornianFB-Reg, Californian FB;}</style></defs><path d="M22.49,31.23v-.91h1.05L26,12.56h1.45l2.63,17.76h1.29v.91H26.82v-.91h1.11l-1.7-13.38h0L24.5,30.32h1v.91Zm2.09-4.15v-.85h3.27v.85Z"/><path d="M32,31.23v-.91h1.29V12.16H32v-.9h3.28V30.32h1.3v.91Z"/><path d="M37.52,31.23v-.91h1.42V18.19H37.52v-.9h3.42v13h1.42v.91Zm2.39-16.44a1.46,1.46,0,0,1-1.06-.44,1.44,1.44,0,0,1-.43-1,1.47,1.47,0,0,1,.43-1.06,1.45,1.45,0,0,1,1.06-.43,1.38,1.38,0,0,1,1,.43,1.44,1.44,0,0,1,.44,1.06,1.41,1.41,0,0,1-.44,1A1.39,1.39,0,0,1,39.91,14.79Z"/><path d="M47.34,31.5a2.48,2.48,0,0,1-1.66-.6,4.69,4.69,0,0,1-1.24-1.63,9.13,9.13,0,0,1-.77-2.35,13.87,13.87,0,0,1-.27-2.78,11.3,11.3,0,0,1,.37-3.08,7.27,7.27,0,0,1,.95-2.17A4.32,4.32,0,0,1,46,17.59a2.63,2.63,0,0,1,1.37-.44,2.26,2.26,0,0,1,1.5.52A3.42,3.42,0,0,1,49.82,19a4.76,4.76,0,0,1,.32,1.71,1.61,1.61,0,0,1-.24,1,.74.74,0,0,1-.64.33.8.8,0,0,1-.65-.29,1.2,1.2,0,0,1-.24-.77,1,1,0,0,1,.1-.5c.06-.11.13-.24.19-.37a1.11,1.11,0,0,0,.11-.52,1.5,1.5,0,0,0-.38-1.08,1.24,1.24,0,0,0-.92-.38,1.09,1.09,0,0,0-.92.53,4.24,4.24,0,0,0-.61,1.4A11.7,11.7,0,0,0,45.6,22c-.06.71-.1,1.41-.1,2.11s0,1.47.1,2.23a14,14,0,0,0,.34,2.09,4.53,4.53,0,0,0,.64,1.56,1.26,1.26,0,0,0,1.05.59,1.58,1.58,0,0,0,1.12-.38,2.6,2.6,0,0,0,.59-1l.68.58a3.29,3.29,0,0,1-.9,1.17A2.56,2.56,0,0,1,47.34,31.5Z"/><path d="M55.15,31.5a2.53,2.53,0,0,1-1.65-.57,4.06,4.06,0,0,1-1.14-1.58A9.64,9.64,0,0,1,51.71,27a16.68,16.68,0,0,1-.22-2.81,14.26,14.26,0,0,1,.3-3.11,7.75,7.75,0,0,1,.81-2.21,3.88,3.88,0,0,1,1.17-1.31,2.42,2.42,0,0,1,1.37-.44,2.27,2.27,0,0,1,1.46.5,4,4,0,0,1,1,1.35,8.57,8.57,0,0,1,.6,1.93,12.27,12.27,0,0,1,.2,2.21c0,.19,0,.38,0,.56s0,.36,0,.55h-5v-.91h3.12c0-1.11,0-2.07-.12-2.85a5.85,5.85,0,0,0-.41-1.8.88.88,0,0,0-.79-.62,1,1,0,0,0-.84.62,5.3,5.3,0,0,0-.57,1.89,22,22,0,0,0-.2,3.24c0,1,0,1.86.08,2.68a14.37,14.37,0,0,0,.28,2.13,3.74,3.74,0,0,0,.56,1.4,1.06,1.06,0,0,0,.9.5,1.71,1.71,0,0,0,1.29-.48,2.89,2.89,0,0,0,.63-.93l.79.45A2.81,2.81,0,0,1,57,30.91,3,3,0,0,1,55.15,31.5Z"/><text class="cls-1" transform="translate(65.07 33.94)">Jewelry</text></svg>